<?xml version="1.0" encoding="UTF-8"?>
<!DOCTYPE svg PUBLIC "-//W3C//DTD SVG 1.1//EN" "http://www.w3.org/Graphics/SVG/1.1/DTD/svg11.dtd">
<!-- Creator: CorelDRAW 2020 (64-Bit) -->
<svg xmlns="http://www.w3.org/2000/svg" xml:space="preserve" width="105mm" height="148mm" version="1.1" style="shape-rendering:geometricPrecision; text-rendering:geometricPrecision; image-rendering:optimizeQuality; fill-rule:evenodd; clip-rule:evenodd"
viewBox="0 0 10500 14800"
 xmlns:xlink="http://www.w3.org/1999/xlink"
 xmlns:xodm="http://www.corel.com/coreldraw/odm/2003">
 <defs>
  <style type="text/css">
   <![CDATA[
    .fil1 {fill:#2B2A29}
    .fil0 {fill:#FEFEFE}
   ]]>
  </style>
 </defs>
 <g id="Слой_x0020_1">
  <metadata id="CorelCorpID_0Corel-Layer"/>
  <circle class="fil0" cx="5250" cy="7400" r="3000"/>
  <path class="fil1" d="M5881.71 7658.55c347.44,246 619,526.07 742.66,1065.56l-667.13 1.19c-113.83,-377.94 -410.09,-657.65 -764.1,-756.25 232.34,-73.41 468.56,-177.52 688.57,-310.5zm-654.07 -1584.02c199.48,0 361.18,161.71 361.18,361.17 0,199.47 -161.7,361.18 -361.18,361.18 -199.47,0 -361.17,-161.71 -361.17,-361.18 0,-199.46 161.7,-361.17 361.17,-361.17zm-1449.66 407.23l598.93 -309.82c284.86,362.66 485.66,704.11 575.88,1042.7 588.6,-102.75 995.96,-510.3 1208.79,-1068.37l560.42 313.38c-235.02,747.32 -1029.18,1245.07 -1744.43,1434.41 -54.24,268.45 -187.05,542.65 -411.46,831.43l-693.4 -33.66c699.8,-659.87 511.59,-1718.83 -94.73,-2210.07z"/>
 </g>
</svg>
