<?xml version="1.0" encoding="UTF-8"?>
<!DOCTYPE svg PUBLIC "-//W3C//DTD SVG 1.1//EN" "http://www.w3.org/Graphics/SVG/1.1/DTD/svg11.dtd">
<!-- Creator: CorelDRAW 2020 (64-Bit) -->
<svg xmlns="http://www.w3.org/2000/svg" xml:space="preserve" width="105mm" height="148mm" version="1.1" style="shape-rendering:geometricPrecision; text-rendering:geometricPrecision; image-rendering:optimizeQuality; fill-rule:evenodd; clip-rule:evenodd"
viewBox="0 0 10500 14800"
 xmlns:xlink="http://www.w3.org/1999/xlink"
 xmlns:xodm="http://www.corel.com/coreldraw/odm/2003">
 <defs>
  <style type="text/css">
   <![CDATA[
    .fil0 {fill:#FEFEFE}
    .fil1 {fill:url(#id0)}
   ]]>
  </style>
  <linearGradient id="id0" gradientUnits="userSpaceOnUse" x1="4547.27" y1="5711.91" x2="5934.53" y2="8819.76">
   <stop offset="0" style="stop-opacity:1; stop-color:#E74B23"/>
   <stop offset="0.509804" style="stop-opacity:1; stop-color:#D8343C"/>
   <stop offset="1" style="stop-opacity:1; stop-color:#C81D55"/>
  </linearGradient>
 </defs>
 <g id="Слой_x0020_1">
  <metadata id="CorelCorpID_0Corel-Layer"/>
  <circle class="fil0" cx="5250" cy="7400" r="3000"/>
  <path class="fil1" d="M6265.22 8815.56l-2046.03 0c-80.75,0 -154.12,-32.99 -207.28,-86.14 -53.15,-53.15 -86.14,-126.52 -86.14,-207.28l0 -2412.82c0,-80.75 32.99,-154.13 86.14,-207.27 53.16,-53.15 126.53,-86.15 207.28,-86.15l2046.03 0c80.75,0 154.13,33 207.28,86.14 53.15,53.15 86.14,126.52 86.14,207.28l0 2412.82c0,80.76 -32.99,154.13 -86.14,207.28 -53.16,53.15 -126.53,86.14 -207.28,86.14zm-1798.03 -1573.95c-37.34,-29.6 -56.93,-45.14 -56.93,-101.55 0,-13.77 3.12,-26.52 8.92,-38.35 5.73,-11.69 13.52,-21.31 23,-29.15 39.5,-32.63 346,-49.14 496.1,-57.21l33.72 -1.84c3.99,-10.19 8.13,-20 11.38,-27.69l3.39 -7.94 -0.11 -0.05 154.79 -383.82 0.06 0.03c12.87,-32.4 22.61,-49.93 41.38,-63.15 21.53,-15.17 38.71,-15.74 68.34,-15.74 65.19,0 87.83,62.59 108.53,119.8 3.04,8.42 6.03,16.67 9.07,24.28 2.14,5.34 6.82,16.61 18.92,46.27 32.18,78.91 94.32,231.23 123.03,308.3l332.29 24.11 3.3 0.41c13.81,1.87 32.82,2.6 53.04,3.38 31.06,1.19 64.63,2.48 93.5,7.55 23.92,4.2 42.91,15.55 56.76,31.04 10.35,11.57 17.4,25.25 21.15,39.82 3.6,14.02 4.19,28.55 1.74,42.46 -3.86,21.99 -15.13,43.51 -33.76,60.18l-1.03 1.03c-41.18,34.82 -82.2,69.71 -123.19,104.56 -79.62,67.7 -159.18,135.35 -236.26,199.59 10.74,44.46 22.66,91.09 34.47,137.31 5.94,23.23 11.86,46.38 21.11,83.41l6.46 25.47c16.9,65.38 56.67,219.21 56.67,242.31 0,28.83 -11.55,53.05 -31.51,70.51 -18.22,15.96 -42.52,24.93 -70.02,24.93 -34.62,0 -92.65,-38.54 -127.83,-61.89 -7.61,-5.05 -13.93,-9.25 -17.01,-11.14 -7.98,-4.89 -37.31,-23.41 -75.12,-47.29 -82.12,-51.85 -192.71,-131.16 -224.88,-149.6l-402.01 249.71c-22.22,14.56 -44.07,20.46 -64.12,20.46 -18.18,0 -34.76,-5.05 -48.97,-13.2l-0.09 0.16c-13.99,-8.03 -25.33,-19.16 -33.35,-31.42 -9.66,-14.75 -14.95,-31.8 -14.95,-48.18 0,-24.8 15.94,-85.05 26,-123.11 1.83,-6.94 3.42,-12.97 5.47,-21.15l86.94 -347.76c-47.14,-39.58 -95.89,-80.57 -149.18,-125.59 -56.6,-47.81 -114.23,-96.76 -173.73,-147.79l0.07 -0.08 -15.55 -12.39z"/>
 </g>
</svg>
