<?xml version="1.0" encoding="UTF-8"?>
<!DOCTYPE svg PUBLIC "-//W3C//DTD SVG 1.1//EN" "http://www.w3.org/Graphics/SVG/1.1/DTD/svg11.dtd">
<!-- Creator: CorelDRAW 2020 (64-Bit) -->
<svg xmlns="http://www.w3.org/2000/svg" xml:space="preserve" width="105mm" height="148mm" version="1.1" style="shape-rendering:geometricPrecision; text-rendering:geometricPrecision; image-rendering:optimizeQuality; fill-rule:evenodd; clip-rule:evenodd"
viewBox="0 0 10500 14800"
 xmlns:xlink="http://www.w3.org/1999/xlink"
 xmlns:xodm="http://www.corel.com/coreldraw/odm/2003">
 <defs>
  <style type="text/css">
   <![CDATA[
    .fil0 {fill:#2B2A29;fill-rule:nonzero}
   ]]>
  </style>
 </defs>
 <g id="Слой_x0020_1">
  <metadata id="CorelCorpID_0Corel-Layer"/>
  <path class="fil0" d="M3322.14 6720.71c0,105.32 3.59,185.38 18.3,261.68 14.66,76.12 40.9,151.91 86.28,249.8 109.09,235.23 197.45,345.02 318.86,495.9 33.99,42.22 70.25,87.27 101.81,127.89 33.81,43.53 85.13,94.54 131.44,140.58 20.26,20.15 39.65,39.43 56.27,56.67l301.54 294.29c46.26,43.01 128.1,112.71 213.99,183.67 97.35,80.45 198.59,161.44 258.21,206.38l-0.09 0.12 434.04 312.83c26.97,-17.22 65.78,-46.93 91.02,-66.26l15.32 -11.74c25.89,-19.53 54.22,-39.64 82.39,-59.63 26.54,-18.82 53,-37.61 76.14,-55.03 85.03,-64 169.09,-133.24 250.6,-200.37 66.82,-55.04 132.01,-108.73 193.99,-156.61 8.45,-6.55 11.95,-9.86 18.5,-16.05l9.31 -8.76c41.62,-38.7 90.01,-81.73 142.3,-128.22 138.98,-123.56 305.64,-271.75 369.51,-355.45 18.15,-23.79 34.54,-39.88 51.74,-56.73 13.87,-13.6 28.48,-27.93 45.41,-49.71 9.51,-12.24 16.88,-19.69 24.55,-27.45l0.29 -0.29c2.83,-2.86 5.76,-5.84 9.62,-10.32l236.81 -297.34c72.7,-96.41 158.27,-241.52 220.21,-389.55 48.34,-115.54 81.76,-231.33 81.76,-323.34l0 -79.88 0.31 0c-0.23,-39.12 -1.37,-68.21 -5.93,-101.35 -4.49,-32.68 -12.89,-71.57 -27.77,-131.09 -19.86,-79.51 -55.37,-162.72 -100.11,-240.47 -46.42,-80.65 -102.66,-155.41 -161.66,-214.18 -62.87,-62.6 -136.53,-119.97 -216.19,-167.02 -74.94,-44.27 -154.56,-79.06 -234.69,-100.03 -176.67,-46.21 -353.53,-49.12 -519.29,-10.85 -164.33,37.95 -318.14,116.7 -450.29,234.15l-0.3 0c-8.58,7.62 -21.8,20.34 -36.85,35.39 -14.63,14.63 -27.12,27.6 -34.59,36.06 -6.12,6.93 -13.59,17 -21.06,27.08 -19.65,26.49 -39.42,53.16 -69.54,73.32l-42.1 28.21 -42.1 -28.21c-15.09,-10.1 -36.98,-35.17 -64.47,-66.68 -28.2,-32.34 -63.62,-72.92 -92.32,-100.09l-177.98 -128.4c-98.72,-58.91 -183.74,-92.89 -272.37,-112.01 -90.78,-19.58 -188.45,-24.17 -309.76,-24.17 -66.93,0 -134.68,8.14 -198.09,20.99 -74.53,15.1 -144.63,37.03 -201.27,60.12 -173.95,70.93 -312.6,190.56 -408.44,338.76l0.21 0.13c-99.53,154.01 -153.47,339.18 -153.47,533.26zm-130.53 290.14c-17.11,-88.74 -21.29,-176.63 -21.29,-290.14 0,-223.07 62.49,-436.67 177.8,-615.09l0.3 0c112.62,-174.24 275.08,-314.66 478.48,-397.59 63.03,-25.7 142.43,-50.37 228.56,-67.83 74.22,-15.04 152.33,-24.57 227.74,-24.57 130.42,0 236.97,5.27 341.18,27.75 105.63,22.79 205.79,62.73 320.98,131.79l5.33 3.55 190.33 137.31 2.78 2.6c30.84,28.67 67.2,69.79 97.56,104.55 6.21,-8.2 12.76,-16.48 20.28,-24.99 13.48,-15.27 27.73,-30.39 40.52,-43.18 12.83,-12.83 28.28,-27.39 43.8,-41.17l-0.13 -0.15c151.35,-134.51 328.06,-224.85 517.3,-268.54 189.08,-43.65 390.38,-40.46 591.04,12.04 94.9,24.83 187.7,65.16 273.83,116.04 90.23,53.28 174,118.61 245.84,190.14 68.05,67.78 132.74,153.69 185.97,246.19 51.86,90.14 93.04,186.67 116.12,279.03 15.92,63.68 25.17,107.27 30.73,147.7 5.48,39.88 6.85,74.59 7.11,121.2l0.31 0.3 0 79.88c0,113.4 -38.27,249.13 -93.64,381.46 -67.03,160.23 -160.02,317.78 -239.18,422.75 -80.13,100.15 -159.28,204.46 -241.17,302.73 -7.17,8.46 -12.99,14.37 -18.6,20.05 -3.57,3.6 -7,7.07 -12.69,14.4 -21.67,27.88 -40.83,46.68 -59.05,64.54 -13.09,12.83 -25.57,25.07 -37.5,40.72 -73.23,95.97 -245.45,249.09 -389.08,376.79 -54.42,48.38 -104.76,93.15 -139.93,125.85l-8.71 8.17c-9.46,8.94 -14.51,13.71 -29.77,25.53 -62.66,48.4 -125.75,100.38 -190.43,153.65 -82.44,67.9 -167.46,137.91 -255.94,204.52 -29.39,22.13 -54.18,39.72 -79.1,57.4 -24.69,17.52 -49.55,35.17 -78.84,57.26l-14.72 11.15c-45.11,34.54 -124.54,95.33 -174.13,106.88l-33.32 7.75 -499.28 -359.84 -1.49 -0.89c-61.82,-46.61 -165.13,-129.2 -263.54,-210.53 -86.67,-71.62 -170.63,-143.21 -220.5,-189.62 -100.91,-100.92 -205.87,-198.57 -306.79,-299.48 -16.47,-17.11 -35.1,-35.65 -54.59,-55.02 -50.45,-50.16 -106.36,-105.72 -144.49,-154.81 -41.11,-52.92 -71.57,-90.77 -100.02,-126.11 -128.25,-159.35 -221.57,-275.31 -338.42,-527.33 -50.76,-109.47 -80.43,-195.88 -97.55,-284.79z"/>
 </g>
</svg>
