<?xml version="1.0" encoding="UTF-8"?>
<!DOCTYPE svg PUBLIC "-//W3C//DTD SVG 1.1//EN" "http://www.w3.org/Graphics/SVG/1.1/DTD/svg11.dtd">
<!-- Creator: CorelDRAW 2020 (64-Bit) -->
<svg xmlns="http://www.w3.org/2000/svg" xml:space="preserve" width="105mm" height="148mm" version="1.1" style="shape-rendering:geometricPrecision; text-rendering:geometricPrecision; image-rendering:optimizeQuality; fill-rule:evenodd; clip-rule:evenodd"
viewBox="0 0 10500 14800"
 xmlns:xlink="http://www.w3.org/1999/xlink"
 xmlns:xodm="http://www.corel.com/coreldraw/odm/2003">
 <defs>
  <style type="text/css">
   <![CDATA[
    .str0 {stroke:#2B2A29;stroke-width:7.62;stroke-miterlimit:22.9256}
    .fil0 {fill:#2B2A29;fill-rule:nonzero}
   ]]>
  </style>
 </defs>
 <g id="Слой_x0020_1">
  <metadata id="CorelCorpID_0Corel-Layer"/>
  <path class="fil0 str0" d="M6546.71 7861.68c0,251.31 -92.3,464.61 -276.9,639.9 -184.6,175.3 -452.2,281.56 -802.79,318.79l0 521.23 -381.61 0 0 -516.58c-229.59,-15.51 -446.77,-57.39 -651.54,-125.65 -204.77,-68.26 -367.66,-155.13 -488.66,-260.61l209.43 -470.04c114.79,93.07 254.41,171.41 418.84,235.02 164.44,63.6 335.08,103.16 511.93,118.67l0 -930.77c-220.29,-52.74 -404.11,-110.91 -551.48,-174.52 -147.38,-63.6 -270.7,-156.68 -369.99,-279.23 -99.28,-122.55 -148.92,-284.66 -148.92,-486.32 0,-251.31 91.53,-465.39 274.58,-642.23 183.05,-176.85 448.32,-282.34 795.81,-316.46l0 -525.89 381.61 0 0 516.58c173.74,9.31 343.61,38.78 509.6,88.42 165.98,49.64 311.03,114.8 435.13,195.46l-190.81 470.04c-235.79,-136.51 -487.1,-220.28 -753.92,-251.31l0 940.08c223.38,52.74 408.76,110.14 556.13,172.19 147.38,62.05 271.48,154.35 372.31,276.9 100.83,122.55 151.25,284.66 151.25,486.33zm-1931.34 -1438.04c0,102.39 40.33,184.61 121,246.66 80.66,62.05 197.01,114.79 349.04,158.23l0 -828.39c-158.24,24.82 -276.13,74.47 -353.7,148.93 -77.56,74.46 -116.34,165.98 -116.34,274.57zm851.65 1889.46c164.44,-24.82 286.21,-72.91 365.33,-144.27 79.11,-71.36 118.67,-159.78 118.67,-265.27 0,-105.48 -41.89,-190.03 -125.65,-253.63 -83.77,-63.6 -203.22,-117.12 -358.35,-160.56l0 823.73z"/>
 </g>
</svg>
