<?xml version="1.0" encoding="UTF-8"?>
<!DOCTYPE svg PUBLIC "-//W3C//DTD SVG 1.1//EN" "http://www.w3.org/Graphics/SVG/1.1/DTD/svg11.dtd">
<!-- Creator: CorelDRAW 2020 (64-Bit) -->
<svg xmlns="http://www.w3.org/2000/svg" xml:space="preserve" width="105mm" height="148mm" version="1.1" style="shape-rendering:geometricPrecision; text-rendering:geometricPrecision; image-rendering:optimizeQuality; fill-rule:evenodd; clip-rule:evenodd"
viewBox="0 0 10500 14800"
 xmlns:xlink="http://www.w3.org/1999/xlink"
 xmlns:xodm="http://www.corel.com/coreldraw/odm/2003">
 <defs>
  <style type="text/css">
   <![CDATA[
    .fil0 {fill:url(#id0);fill-rule:nonzero}
   ]]>
  </style>
  <linearGradient id="id0" gradientUnits="userSpaceOnUse" x1="3881.77" y1="7900.07" x2="6609.35" y2="6408.52">
   <stop offset="0" style="stop-opacity:1; stop-color:#E54D22"/>
   <stop offset="0.301961" style="stop-opacity:1; stop-color:#E53541"/>
   <stop offset="1" style="stop-opacity:1; stop-color:#E61C61"/>
  </linearGradient>
 </defs>
 <g id="Слой_x0020_1">
  <metadata id="CorelCorpID_0Corel-Layer"/>
  <path class="fil0" d="M6550.52 7861.68c0,252.39 -92.71,466.62 -278.09,642.65 -92.65,87.98 -206.12,158.65 -340.37,211.95 -133.25,52.9 -287.01,88.76 -461.23,107.5l0 521.63 -389.23 0 0 -516.83c-113.69,-7.82 -224.37,-22.12 -331.98,-42.86 -108.67,-20.95 -214.35,-48.55 -316.94,-82.75 -102.61,-34.2 -194.75,-73.08 -276.35,-116.6 -81.69,-43.56 -152.91,-91.83 -213.62,-144.75l-2.11 -1.85 212.59 -477.13 3.85 3.13c57.2,46.38 120.64,89.12 190.26,128.18 69.68,39.1 145.55,74.53 227.55,106.25 82,31.71 165.61,57.46 250.79,77.2 83.78,19.42 169.11,33.05 255.96,40.84l0 -923.61c-109.22,-26.21 -209.37,-53.74 -300.43,-82.54 -92.03,-29.12 -174.95,-59.63 -248.74,-91.47 -73.96,-31.91 -141.92,-71.25 -203.82,-117.97 -61.89,-46.71 -117.79,-100.85 -167.62,-162.36 -49.93,-61.63 -87.4,-133.25 -112.37,-214.79 -24.93,-81.43 -37.41,-172.76 -37.41,-273.93 0,-126.15 22.99,-243.01 68.96,-350.53 45.95,-107.49 114.9,-205.66 206.8,-294.44 91.88,-88.77 204.39,-159.62 337.47,-212.55 132.08,-52.51 284.49,-87.39 457.16,-104.61l0 -526.26 389.23 0 0 516.79c85.78,4.73 170.66,14.38 254.55,28.94 85.1,14.76 169.23,34.58 252.33,59.43 83.1,24.85 161.02,53.62 233.72,86.27 72.68,32.64 140.16,69.21 202.39,109.66l2.63 1.72c-64.39,159.05 -129.03,318.02 -193.63,476.99l-3.79 -2.2c-117.69,-68.13 -239.25,-123.11 -364.6,-164.9 -124.04,-41.34 -251.92,-69.82 -383.6,-85.42l0 932.79c110.53,26.15 211.83,53.48 303.87,81.98 92.79,28.73 176.11,58.64 249.92,89.72 73.97,31.13 142.11,69.89 204.4,116.21 62.29,46.32 118.77,100.27 169.37,161.78 50.74,61.66 88.79,133.27 114.14,214.78 25.32,81.43 37.99,172.77 37.99,273.96zm-1931.34 -1438.04c0,50.62 9.95,96.23 29.85,136.79 19.89,40.57 49.8,76.2 89.66,106.86 40.08,30.83 89.1,59.39 147,85.63 56.75,25.73 122.07,49.26 195.91,70.56l0 -818.89c-76.95,12.34 -144.23,30.66 -201.81,54.9 -58.5,24.63 -107,55.42 -145.45,92.32 -38.4,36.87 -67.21,77.95 -86.39,123.22 -19.17,45.26 -28.77,94.81 -28.77,148.61zm851.65 1885.02c80.11,-12.34 149.94,-30.29 209.45,-53.78 60.46,-23.88 110.32,-53.52 149.53,-88.88 39.15,-35.31 68.52,-74.84 88.07,-118.56 19.55,-43.69 29.33,-91.66 29.33,-143.88 0,-52.16 -10.34,-99.11 -31.01,-140.84 -20.68,-41.74 -51.73,-78.35 -93.12,-109.77 -82.49,-62.63 -199.94,-115.49 -352.25,-158.55l0 814.26z"/>
 </g>
</svg>
