<?xml version="1.0" encoding="UTF-8"?>
<!DOCTYPE svg PUBLIC "-//W3C//DTD SVG 1.1//EN" "http://www.w3.org/Graphics/SVG/1.1/DTD/svg11.dtd">
<!-- Creator: CorelDRAW 2020 (64-Bit) -->
<svg xmlns="http://www.w3.org/2000/svg" xml:space="preserve" width="105mm" height="148mm" version="1.1" style="shape-rendering:geometricPrecision; text-rendering:geometricPrecision; image-rendering:optimizeQuality; fill-rule:evenodd; clip-rule:evenodd"
viewBox="0 0 10500 14800"
 xmlns:xlink="http://www.w3.org/1999/xlink"
 xmlns:xodm="http://www.corel.com/coreldraw/odm/2003">
 <defs>
  <style type="text/css">
   <![CDATA[
    .fil0 {fill:#FEFEFE}
    .fil3 {fill:#2B2A29}
    .fil2 {fill:#2B2A29;fill-rule:nonzero}
    .fil1 {fill:#2B2A29;fill-rule:nonzero}
   ]]>
  </style>
 </defs>
 <g id="Слой_x0020_1">
  <metadata id="CorelCorpID_0Corel-Layer"/>
  <circle class="fil0" cx="5250" cy="7400" r="3000"/>
  <g id="_2172421084672">
   <path class="fil1" d="M4171.2 5850.51l2140.94 0c89.04,0 169.96,36.38 228.55,94.97 58.59,58.59 94.97,139.51 94.97,228.55l0 1912.87c0,89.04 -36.39,169.95 -94.98,228.54 -58.59,58.59 -139.5,94.98 -228.54,94.98l-2140.94 0c-89.04,0 -169.95,-36.39 -228.54,-94.98 -58.59,-58.59 -94.98,-139.5 -94.98,-228.54l0 -1912.87c0,-89.04 36.38,-169.96 94.97,-228.55 58.59,-58.59 139.51,-94.97 228.55,-94.97zm2140.94 158.76l-2140.94 0c-45.23,0 -86.42,18.56 -116.31,48.45 -29.89,29.89 -48.45,71.08 -48.45,116.31l0 1912.87c0,45.23 18.57,86.41 48.46,116.3 29.89,29.89 71.07,48.46 116.3,48.46l2140.94 0c45.23,0 86.41,-18.57 116.3,-48.46 29.89,-29.89 48.46,-71.07 48.46,-116.3l0 -1912.87c0,-45.23 -18.56,-86.42 -48.45,-116.31 -29.89,-29.89 -71.08,-48.45 -116.31,-48.45z"/>
   <g>
    <path class="fil2" d="M5731.43 7130.46l-778.69 -498.96 0 997.92 778.69 -498.96zm-317.93 -379.34l493.62 316.29c9.22,5.65 17.34,13.4 23.57,23.11 22.05,34.36 12.08,80.11 -22.28,102.16l-985.9 631.74c-12.28,9.04 -27.45,14.38 -43.86,14.38 -40.91,0 -74.09,-33.18 -74.09,-74.09l0 -1268.5 0.15 0c-0.01,-13.7 3.77,-27.56 11.72,-39.94 22.05,-34.36 67.8,-44.33 102.16,-22.28l494.91 317.13z"/>
    <path class="fil1" d="M3912.41 8865.5c-43.84,0 -79.38,-35.54 -79.38,-79.38 0,-43.84 35.54,-79.38 79.38,-79.38l570.53 0c43.84,0 79.38,35.54 79.38,79.38 0,43.84 -35.54,79.38 -79.38,79.38l-570.53 0z"/>
    <path class="fil1" d="M5188.08 8865.5c-43.84,0 -79.38,-35.54 -79.38,-79.38 0,-43.84 35.54,-79.38 79.38,-79.38l1382.85 0c43.84,0 79.38,35.54 79.38,79.38 0,43.84 -35.54,79.38 -79.38,79.38l-1382.85 0z"/>
   </g>
   <path class="fil3" d="M4835.69 8685.72c55.23,0 100,44.77 100,100 0,55.23 -44.77,100 -100,100 -55.23,0 -100,-44.77 -100,-100 0,-55.23 44.77,-100 100,-100z"/>
  </g>
 </g>
</svg>
