<?xml version="1.0" encoding="UTF-8"?>
<!DOCTYPE svg PUBLIC "-//W3C//DTD SVG 1.1//EN" "http://www.w3.org/Graphics/SVG/1.1/DTD/svg11.dtd">
<!-- Creator: CorelDRAW 2020 (64-Bit) -->
<svg xmlns="http://www.w3.org/2000/svg" xml:space="preserve" width="105mm" height="148mm" version="1.1" style="shape-rendering:geometricPrecision; text-rendering:geometricPrecision; image-rendering:optimizeQuality; fill-rule:evenodd; clip-rule:evenodd"
viewBox="0 0 10500 14800"
 xmlns:xlink="http://www.w3.org/1999/xlink"
 xmlns:xodm="http://www.corel.com/coreldraw/odm/2003">
 <defs>
  <style type="text/css">
   <![CDATA[
    .fil0 {fill:#FEFEFE}
    .fil1 {fill:#2B2A29;fill-rule:nonzero}
    .fil2 {fill:#2B2A29;fill-rule:nonzero}
   ]]>
  </style>
 </defs>
 <g id="Слой_x0020_1">
  <metadata id="CorelCorpID_0Corel-Layer"/>
  <circle class="fil0" cx="5250" cy="7400" r="3000"/>
  <g id="_2172093153232">
   <path class="fil1" d="M4158.07 8441.12l628.11 0 0 -618.57c0,-127.69 52.18,-243.72 136.21,-327.75 84.05,-84.04 200.08,-136.22 327.76,-136.22 127.7,0 243.73,52.18 327.77,136.22 84.04,84.03 136.22,200.06 136.22,327.75l0 618.57 628.11 0 0 -1209.33 -1090.52 -909.05 -1093.66 895 0 1223.38zm718.43 180.64l-808.76 0c-49.88,0 -90.32,-40.44 -90.32,-90.32l0 -1356.42c0.08,-26.13 11.38,-52.03 33.17,-69.86l1184.26 -969.14 0.2 0.24c32.67,-26.79 80.78,-27.56 114.47,0.47l1174.28 978.87c23.62,16.29 39.1,43.53 39.1,74.39l0 1341.45c0,49.88 -40.44,90.32 -90.33,90.32l-808.75 0c-49.88,0 -90.32,-40.44 -90.32,-90.32l0 -708.89c0,-77.82 -31.91,-148.64 -83.3,-200.03 -51.39,-51.38 -122.21,-83.29 -200.03,-83.29 -77.84,0 -148.66,31.91 -200.05,83.29 -51.39,51.39 -83.3,122.21 -83.3,200.03l0 708.89c0,49.88 -40.44,90.32 -90.32,90.32z"/>
   <path class="fil2" d="M6857.52 6959.79c38.19,31.76 43.4,88.48 11.64,126.66 -31.76,38.19 -88.48,43.4 -126.66,11.64l-1490.2 -1242.21 -1494.84 1223.31c-38.58,31.56 -95.45,25.87 -127.01,-12.71 -31.57,-38.58 -25.87,-95.45 12.71,-127.01l1552.27 -1270.31 0.19 0.24c32.68,-26.79 80.79,-27.55 114.47,0.47l1547.43 1289.92z"/>
  </g>
 </g>
</svg>
