<?xml version="1.0" encoding="UTF-8"?>
<!DOCTYPE svg PUBLIC "-//W3C//DTD SVG 1.1//EN" "http://www.w3.org/Graphics/SVG/1.1/DTD/svg11.dtd">
<!-- Creator: CorelDRAW 2020 (64-Bit) -->
<svg xmlns="http://www.w3.org/2000/svg" xml:space="preserve" width="105mm" height="148mm" version="1.1" style="shape-rendering:geometricPrecision; text-rendering:geometricPrecision; image-rendering:optimizeQuality; fill-rule:evenodd; clip-rule:evenodd"
viewBox="0 0 10500 14800"
 xmlns:xlink="http://www.w3.org/1999/xlink"
 xmlns:xodm="http://www.corel.com/coreldraw/odm/2003">
 <defs>
  <style type="text/css">
   <![CDATA[
    .fil0 {fill:#FEFEFE}
    .fil1 {fill:#2B2A29;fill-rule:nonzero}
    .fil2 {fill:black;fill-rule:nonzero}
   ]]>
  </style>
 </defs>
 <g id="Слой_x0020_1">
  <metadata id="CorelCorpID_0Corel-Layer"/>
  <circle class="fil0" cx="5250" cy="7400" r="3000"/>
  <g id="_2172077456784">
   <path class="fil1" d="M4218.58 8658.78l2041.84 0c81.47,0 148.21,-66.93 148.4,-148.41l5.41 -2376.65c0.19,-81.52 -67.03,-148.41 -148.4,-148.41l-2041.84 0c-80.9,0 -148.22,66.53 -148.4,148.41l-5.41 2376.65c-0.18,81.36 66.93,148.41 148.4,148.41zm2041.84 168.3l-2041.84 0c-174.24,0 -317.1,-142.38 -316.7,-316.71l5.41 -2376.65c0.4,-174.34 142.35,-316.7 316.7,-316.7l2041.84 0c174.29,0 317.09,142.45 316.7,316.7l-5.41 2376.65c-0.39,174.24 -142.37,316.71 -316.7,316.71z"/>
   <path class="fil2" d="M4449.39 7274.67c-47.28,-37.48 -68.72,-57.6 -68.72,-125.88 0,-35.28 16.24,-69.21 43.27,-91.55 48.19,-39.82 370.68,-56.54 527.27,-64.95 56.82,-134.75 109.83,-272.54 164.78,-408.24l0.14 0.05c28.81,-68.43 61.15,-90.36 135.2,-90.36 99.06,0 118.43,93.52 146.45,163.54l134.45 335.63 371.84 26.04c65.3,2.3 127.3,4.51 167.39,49.32 50.86,56.85 38.41,142.58 -14.95,188.01l-343.85 291.14 114.77 475.95c0,74.37 -60.09,126.66 -132.73,126.66 -81.26,0 -365.16,-220.82 -439.74,-266.47l-388.37 241.24c-43.62,27.43 -91.88,34.79 -137.74,12.16l-0.27 0.46c-108.71,-62.43 -66.98,-152.98 -39.18,-262.59l82.02 -328.07c-106.21,-89.95 -213.35,-185.96 -322.03,-272.09zm149.87 -93.62l360.67 304.65 -114.16 454.23 372.71 -231.5c28.46,-8.12 84.85,25.42 154.85,66.67 94.17,55.49 213.71,131.18 266.17,165.86l-114.34 -456.18 354.46 -298.79c-156.02,-9.26 -312.44,-25.88 -468.27,-39.09 -44.68,-133.9 -115.87,-286.13 -169.3,-426.69l-165.03 422.77 -477.76 38.07z"/>
  </g>
 </g>
</svg>
