<?xml version="1.0" encoding="UTF-8"?>
<!DOCTYPE svg PUBLIC "-//W3C//DTD SVG 1.1//EN" "http://www.w3.org/Graphics/SVG/1.1/DTD/svg11.dtd">
<!-- Creator: CorelDRAW 2020 (64-Bit) -->
<svg xmlns="http://www.w3.org/2000/svg" xml:space="preserve" width="42mm" height="42mm" version="1.1" style="shape-rendering:geometricPrecision; text-rendering:geometricPrecision; image-rendering:optimizeQuality; fill-rule:evenodd; clip-rule:evenodd"
viewBox="0 0 4200 4200"
 xmlns:xlink="http://www.w3.org/1999/xlink"
 xmlns:xodm="http://www.corel.com/coreldraw/odm/2003">
 <defs>
  <style type="text/css">
   <![CDATA[
    .fil0 {fill:url(#id0)}
   ]]>
  </style>
  <linearGradient id="id0" gradientUnits="userSpaceOnUse" x1="762.25" y1="3528.17" x2="3422.15" y2="699.87">
   <stop offset="0" style="stop-opacity:1; stop-color:#E54D22"/>
   <stop offset="0.301961" style="stop-opacity:1; stop-color:#E53541"/>
   <stop offset="1" style="stop-opacity:1; stop-color:#E61C61"/>
  </linearGradient>
 </defs>
 <g id="Слой_x0020_1">
  <metadata id="CorelCorpID_0Corel-Layer"/>
  <path class="fil0" d="M4.95 1388.86c0,228.87 16.26,351.2 116.82,568.05 147.68,318.48 259.18,423.27 449.2,667.82 53.19,68.46 143.19,151.49 202.6,213.22l317.72 310.08c107.29,99.83 380.51,323.09 499.98,413.18l492.78 355.17c40.38,-9.41 131.41,-82.11 167.72,-109.48 56.94,-42.95 109.75,-77.95 165.47,-119.9 163.53,-123.09 319.42,-260.79 465.85,-373.93 16.31,-12.63 18.86,-15.92 34.66,-30.59 146.52,-136.21 445.43,-386.27 544.21,-515.71 32.42,-42.5 62.05,-60.19 101.28,-110.69 14.16,-18.21 20.96,-22.06 34.89,-38.51l249.41 -313.16c143.27,-189.98 331.91,-552.27 331.91,-793.24l0 -83.53c-0.53,-89.85 -5.2,-133.44 -37.41,-262.29 -45.63,-182.57 -163.95,-382 -294.82,-512.34 -137.25,-136.65 -319.4,-250.5 -507.47,-299.72 -393.92,-103.06 -789.47,-13.08 -1086.47,250.87 -25.06,22.24 -59.4,56.48 -81.53,81.54 -26.41,29.89 -48.91,71.14 -79.55,91.66 -16.28,-10.9 -98.28,-114.81 -156.85,-169.28l-194.19 -140.1c-224.73,-134.73 -388.56,-155.35 -651.82,-155.35 -161.31,0 -331.21,43.34 -447.39,90.72 -400.75,163.41 -637,555.78 -637,985.51z"/>
 </g>
</svg>
